<svg xmlns="http://www.w3.org/2000/svg" viewBox="0 0 564.76 166.23"><defs><style>.cls-1,.cls-2{fill:#fff;}.cls-2{stroke:#fff;stroke-miterlimit:10;stroke-width:0.5px;}</style></defs><g id="Camada_2" data-name="Camada 2"><g id="Camada_1-2" data-name="Camada 1"><path class="cls-1" d="M19.58,136.37a40.14,40.14,0,0,1-2-4.48,83.33,83.33,0,0,1-5.46-25.68C12,104.61,12,103,12,101.38A84.27,84.27,0,0,1,84.15,18a77.15,77.15,0,0,1,24.64.06l.76.12h0a84.06,84.06,0,0,1,48,25.39,114.29,114.29,0,0,1,17.75,1.27,80,80,0,0,0-5.67-8.13,94.48,94.48,0,0,0-12.73-13.48l-2-1.71c-.86-.65-1.72-1.39-2.57-2A94.78,94.78,0,0,0,105.5.64,89.78,89.78,0,0,0,94.69,0,94.69,94.69,0,0,0,6.53,129.25v.11a3.65,3.65,0,0,1,.42,1,44.71,44.71,0,0,0,22.37,23.22,4.26,4.26,0,0,1,.91.51l0,0s0,0,0,0v0a1.19,1.19,0,0,1,.08-.16A84.22,84.22,0,0,1,19.58,136.37Z"></path><path class="cls-2" d="M243.16,58.77c0-6.1,2.6-9.4,7.6-9.4s7.6,3.3,7.6,9.4v16.8c0,4-1,6.3-2.5,7.7a8.13,8.13,0,0,1-10.2,0c-1.5-1.4-2.5-3.7-2.5-7.7Zm1.6,16.8c0,5.4,1.9,7.8,5.9,7.9s5.9-2.3,5.9-7.8V58.87c0-5.5-1.9-7.8-5.9-7.8s-5.9,2.5-5.9,7.8Z"></path><path class="cls-2" d="M296.76,85.07l-12.3-30.6v30.6h-1.7l.1-35.7h1.4L296.46,80V49.37h1.7l-.1,35.7Z"></path><path class="cls-2" d="M306.66,58.87c0-6.1,2.6-9.4,7.6-9.4s7.6,3.3,7.6,9.4v16.8c0,4-1,6.3-2.5,7.7a8.13,8.13,0,0,1-10.2,0c-1.5-1.4-2.5-3.7-2.5-7.7Zm1.7,16.8c0,5.4,1.9,7.8,5.9,7.9s5.9-2.3,5.9-7.8V59c0-5.5-1.9-7.8-5.9-7.8s-5.9,2.5-5.9,7.8Z"></path><path class="cls-2" d="M337.06,80.87l7.4-31.5h1.7l-8.5,35.7h-1.3L328,49.37h1.7Z"></path><path class="cls-2" d="M351.66,58.87c0-6.1,2.6-9.4,7.6-9.4s7.6,3.3,7.6,9.4v16.8c0,4-1,6.3-2.5,7.7a8.12,8.12,0,0,1-10.2,0c-1.5-1.4-2.5-3.7-2.5-7.7Zm1.6,16.8c0,5.4,1.9,7.8,5.9,7.9s5.9-2.3,5.9-7.8V59c0-5.5-1.9-7.8-5.9-7.8s-5.9,2.5-5.9,7.8Z"></path><path class="cls-1" d="M246.26,137.77v15.7h-4.6l.1-36.2h7.5c6.1,0,9.2,3.7,9.2,10.2s-3,10.2-9.2,10.2Zm.1-15.7v11.1h2.9a5.11,5.11,0,0,0,2.6-.4,9.68,9.68,0,0,0,.9-.7c.7-.7,1.1-2.3,1.1-4.5,0-2.4-.4-3.7-1.1-4.5a4.48,4.48,0,0,0-3.4-1Z"></path><path class="cls-1" d="M287.06,153.57h-4.7v-10.7c0-3.2-1.5-4.8-4.6-4.8h-2.9v15.5h-4.6l.1-36.2h7.5c6.2,0,9.2,3.6,9.2,10.3,0,3.3-.7,5.9-2.2,7.6l-.2.2c-.1.1-.2.2-.3.2a9.34,9.34,0,0,1,2.7,7.1ZM275,133.47h2.9a5.61,5.61,0,0,0,2.6-.4,9.68,9.68,0,0,0,.9-.7,7.76,7.76,0,0,0,1.1-4.6c0-2.4-.4-3.8-1.1-4.7a4.48,4.48,0,0,0-3.4-1h-2.9Z"></path><path class="cls-1" d="M300.66,127.77q0-4.8,2.1-7.5a8.35,8.35,0,0,1,2.4-1.9,9.7,9.7,0,0,1,4.2-.9c3.5,0,5.5,1.5,6.5,2.9a11.34,11.34,0,0,1,2,7.5v15.6q0,4.8-2.1,7.5a7.81,7.81,0,0,1-6.5,2.8c-3.5,0-5.5-1.5-6.5-2.9a11.34,11.34,0,0,1-2-7.5Zm4.5,15.5c0,2.9.6,4.3,1.5,5a3.57,3.57,0,0,0,2.5.7,3.7,3.7,0,0,0,2.5-.7c.8-.7,1.5-2.1,1.5-5v-15.6c0-2.8-.6-4.3-1.5-5a3.7,3.7,0,0,0-2.5-.7,3.57,3.57,0,0,0-2.5.7c-.8.7-1.5,2.2-1.5,5Z"></path><path class="cls-1" d="M330.26,127.77c0-6.5,2.9-10.2,8.6-10.2s8.6,3.8,8.6,10.3v2.3h-4.7v-2.3c0-2.6-.5-4-1.2-4.8a3.91,3.91,0,0,0-2.7-.8,3.63,3.63,0,0,0-2.7.8c-.8.8-1.3,2.2-1.3,4.8v15.6c0,2.9.6,4.3,1.5,5a3.7,3.7,0,0,0,2.5.7,4,4,0,0,0,2.6-.7c.8-.7,1.4-2.1,1.4-5v-2.7h-5.6v-4.7h10.3v7.4q0,4.8-2.1,7.5a7.81,7.81,0,0,1-6.5,2.8,7.71,7.71,0,0,1-6.5-2.9q-2.1-2.55-2.1-7.5Z"></path><path class="cls-1" d="M377.06,153.67h-4.7V143c0-3.2-1.5-4.8-4.6-4.8h-2.9v15.5h-4.6l.1-36.2h7.5c6.2,0,9.2,3.6,9.2,10.3,0,3.3-.7,5.9-2.2,7.6l-.2.2c-.1.1-.2.2-.3.2a9.34,9.34,0,0,1,2.7,7.1ZM365,133.57h2.9a5.61,5.61,0,0,0,2.6-.4,9.68,9.68,0,0,0,.9-.7,7.76,7.76,0,0,0,1.1-4.6c0-2.4-.4-3.8-1.1-4.7a4.48,4.48,0,0,0-3.4-1h-2.9Z"></path><path class="cls-1" d="M404,143.67h-6.3l-2.3,10.1h-4.8l8.4-36.1h3.7l8.4,36.2h-4.8Zm-5.2-4.6h4.1l-2-8.9Z"></path><path class="cls-1" d="M431.46,153.77l-5-17.3v17.3h-4.6l.1-36.2h4.1l7.3,25.5,7.3-25.4h4.1l-.1,36.2h-4.6v-17.3l-5,17.3Z"></path><path class="cls-1" d="M471.36,143.77h-6.3l-2.3,10.1H458l8.4-36.1h3.7l8.4,36.2h-4.8Zm-5.2-4.6h4.1l-2-8.9Z"></path><path class="cls-1" d="M489.26,154l.1-36.2h7.2c6.2,0,9.2,3.8,9.2,10.5v15.2c0,6.6-3,10.5-9.2,10.5Zm4.7-31.6v26.9h2.6a4.11,4.11,0,0,0,3.1-.9c.8-.8,1.4-2.3,1.4-5v-15.2c0-2.7-.6-4.2-1.4-5a4.24,4.24,0,0,0-3.1-.9Z"></path><path class="cls-1" d="M518.36,128.07q0-4.8,2.1-7.5a8.35,8.35,0,0,1,2.4-1.9,9.7,9.7,0,0,1,4.2-.9c3.5,0,5.5,1.5,6.5,2.9a11.34,11.34,0,0,1,2,7.5v15.6q0,4.8-2.1,7.5a7.81,7.81,0,0,1-6.5,2.8c-3.5,0-5.5-1.5-6.5-2.9a11.34,11.34,0,0,1-2-7.5Zm4.6,15.6c0,2.9.6,4.3,1.5,5a4.81,4.81,0,0,0,5,0c.8-.7,1.5-2.1,1.5-5v-15.6c0-2.8-.6-4.3-1.5-5a3.83,3.83,0,0,0-2.5-.7,3.57,3.57,0,0,0-2.5.7c-.8.7-1.5,2.2-1.5,5Z"></path><path class="cls-1" d="M564.76,154h-4.7v-10.7c0-3.2-1.5-4.8-4.6-4.8h-2.9V154H548l.1-36.2h7.5c6.2,0,9.2,3.6,9.2,10.3,0,3.3-.7,5.9-2.2,7.6l-.2.2c-.1.1-.2.2-.3.2a9.34,9.34,0,0,1,2.7,7.1Zm-12.1-20.1h2.9a5.61,5.61,0,0,0,2.6-.4,9.68,9.68,0,0,0,.9-.7,7.76,7.76,0,0,0,1.1-4.6c0-2.4-.4-3.8-1.1-4.7a4.48,4.48,0,0,0-3.4-1h-2.9Z"></path><path class="cls-1" d="M78.82,53.76a55.4,55.4,0,0,0-26.2,14.9,36.18,36.18,0,0,0-5.3,6.3,48.53,48.53,0,0,0-7.9,18.2,38.76,38.76,0,0,0-.9,6.8c0,.77,0,2.24,0,4.08.52,26.18,4.65,35.43,4.24,54.33-.05,2.54.21,5.29.21,5.29.74.12,3.36-7.39,3.44-15.72,0-.53-.13-2.79-.39-7.28-.35-5.88-.52-8.83-.67-11.3-1.4-22.22-1.71-22.37-1.58-25.5.26-6.12,1.84-14.81,8-25.3,0,0,10.6-18,28-24.7.2-.1,1.5-.6,1.5-.6A7.37,7.37,0,0,0,78.82,53.76Z"></path><path class="cls-1" d="M154.93,162.84h0a5.36,5.36,0,0,0,4.3-5.4h0c-.1-7.8-.3-23.8-.5-35a147.87,147.87,0,0,0-3.2-28.9c-.1-.3-.1-.6-.2-1-.3-1.3-.6-2.5-.9-3.9-.8-3.1-1.2-4.7-1.6-5.9-3.4-9.6-9.8-15.5-13.4-18.7a54.4,54.4,0,0,0-18.6-10.8,47,47,0,0,1,4.8,2.5c3.7,2.2,15.2,9,22,22.7a59,59,0,0,1,5,15.7,62.27,62.27,0,0,1,1.1,10.9l-.1-.1-12.9-11.4a41.27,41.27,0,0,0-19.3-9.5,44.08,44.08,0,0,0-7.2-.8,38.54,38.54,0,0,0-4.8.2,40,40,0,0,0-4.8.8h0l25,17.9,5.2,3.8,1.5,1.2h0l1.2,1.1h0c2.3,8.5,6,54.5,1.8,57.9h0c.2,0,15.6-3.3,15.6-3.3"></path><path class="cls-1" d="M60.63,132.84a25,25,0,0,0,6.9,13.6c5.2,5.5,11.8,8.3,18.2,11.1a106.54,106.54,0,0,0,15.8,5.2c18,4.3,34.9,3.5,35,3.3a181.46,181.46,0,0,1-23.7-3,106.4,106.4,0,0,1-24.2-7.4c-6.7-3-12.7-5.7-17.9-11.6a36.16,36.16,0,0,1-5.8-8.8,32.09,32.09,0,0,1-2.5-9c-1.9-11.9-.1-20.4-.4-20.5C61.43,105.64,58.63,122.14,60.63,132.84Z"></path><path class="cls-1" d="M169.59,36.7a94.48,94.48,0,0,0-12.73-13.48l-2-1.71c-.86-.65-1.72-1.39-2.57-2A94.78,94.78,0,0,0,105.5.64,89.78,89.78,0,0,0,94.69,0,94.69,94.69,0,0,0,6.53,129.25v.11a3.65,3.65,0,0,1,.42,1,44.71,44.71,0,0,0,22.37,23.22,4.26,4.26,0,0,1,.91.51l0,0s0,0,0,0v0c.8-1.6,1.74-3.28,2.82-5a66.54,66.54,0,0,1,5.16-7.17l-.61.41-7.91,5.85a34,34,0,0,1-7-6.81,36.1,36.1,0,0,1-5.18-9.43A84,84,0,0,1,45.69,34.45c.53-.42,1.07-.75,1.6-1.17C68.8,18,94.8,13.05,118.55,20.33A87.19,87.19,0,0,1,145.41,34l4.23,3.3L139.4,41.84,125.83,48.9s16.8-4.71,28.89-5.24a110.32,110.32,0,0,1,20.54,1.17A80,80,0,0,0,169.59,36.7Z"></path></g></g></svg>